<svg width="500" height="500" version="1.1" xmlns="http://www.w3.org/2000/svg" desc="Created with imagetracer.js version 1.2.6" ><path fill="rgb(0,0,0)" stroke="rgb(0,0,0)" stroke-width="1" opacity="0" d="M 0 0 L 500 0 L 500 500 L 0 500 L 0 0 Z M 121 76 L 113 78 L 104 84 L 99 90 L 95 99 L 95 156 L 85 162 L 78 170 L 76 179 L 77 180 L 78 204 L 80 212 L 80 223 L 82 231 L 82 244 L 84 253 L 85 276 L 87 285 L 88 305 L 89 306 L 89 317 L 91 326 L 91 338 L 93 347 L 93 359 L 95 367 L 95 382 L 97 390 L 97 397 L 102 408 L 109 414 L 118 418 Q 123 417 125 419 L 357 419 L 358 418 L 371 418 L 372 419 L 397 418 L 404 415 Q 412 410 414 399 L 415 375 L 416 374 L 416 358 L 417 357 L 417 346 L 418 345 L 418 327 L 419 326 L 419 316 L 420 315 L 420 299 L 422 290 L 423 270 L 424 269 L 424 256 L 426 247 L 426 235 L 428 226 L 428 213 L 424 203 L 418 199 L 405 197 L 405 98 L 400 88 Q 393 79 381 76 L 121 76 Z " /><path fill="rgb(246,246,246)" stroke="rgb(246,246,246)" stroke-width="1" opacity="0.984313725490196" d="M 120.5 76 L 380.5 76 Q 393.4 78.6 400 87.5 L 405 97.5 L 405 197 L 417.5 199 L 424 203 L 428 212.5 L 428 225.5 L 426 234.5 L 426 246.5 L 424 255.5 L 424 268.5 L 423 269.5 L 422 289.5 L 420 298.5 L 420 314.5 L 419 315.5 L 419 325.5 L 418 326.5 L 418 344.5 L 417 345.5 L 417 356.5 L 416 357.5 L 416 373.5 L 415 374.5 L 414 398.5 Q 411.6 409.6 403.5 415 L 396.5 418 L 371.5 419 L 370.5 418 L 357.5 418 L 356.5 419 L 124.5 419 Q 123 416.5 117.5 418 L 108.5 414 L 102 407.5 L 97 396.5 L 97 389.5 L 95 381.5 L 95 366.5 L 93 358.5 L 93 346.5 L 91 337.5 L 91 325.5 L 89 316.5 L 89 305.5 L 88 304.5 L 87 284.5 L 85 275.5 L 84 252.5 L 82 243.5 L 82 230.5 L 80 222.5 L 80 211.5 L 78 203.5 L 77 179.5 L 76 178.5 L 78 169.5 L 84.5 162 L 95 155.5 L 95 98.5 L 99 89.5 L 103.5 84 L 112.5 78 L 120.5 76 Z " /></svg>