<svg width="861" height="290" version="1.1" xmlns="http://www.w3.org/2000/svg" desc="Created with imagetracer.js version 1.2.6" ><path fill="rgb(0,0,0)" stroke="rgb(0,0,0)" stroke-width="1" opacity="0" d="M 0 0 L 861 0 L 861 290 L 0 290 L 0 0 Z M 108 83 L 106 84 L 101 90 L 99 100 L 94 102 L 90 107 L 90 121 L 91 122 L 91 132 L 93 143 L 93 154 L 94 155 L 94 165 L 95 166 L 96 187 L 97 188 L 97 199 L 98 200 L 99 215 L 101 219 Q 104 223 111 225 L 269 225 L 273 223 Q 278 220 280 213 L 282 155 L 283 154 L 283 138 L 284 137 Q 286 128 283 125 L 276 119 L 220 119 L 215 117 L 204 106 L 184 85 L 180 83 L 108 83 Z M 200 86 L 198 90 L 223 113 L 263 113 L 264 114 L 273 114 L 279 118 L 279 98 L 277 93 Q 274 87 267 86 L 200 86 Z M 373 112 L 358 116 L 349 122 Q 336 131 333 150 Q 331 174 341 187 Q 350 199 369 203 L 385 203 Q 397 201 406 194 L 416 182 L 420 173 L 422 162 L 420 144 L 411 128 Q 405 119 395 115 L 382 112 L 373 112 Z M 575 113 L 571 114 L 571 202 L 572 202 L 588 202 L 589 200 L 589 172 L 613 171 L 626 164 Q 632 159 634 150 Q 636 133 629 125 Q 623 117 612 114 L 604 114 L 603 113 L 575 113 Z M 647 113 L 646 114 L 644 115 L 644 202 L 678 202 Q 679 199 686 201 Q 696 199 703 193 L 712 183 L 717 171 Q 716 166 718 165 L 718 152 L 716 143 L 708 129 Q 700 119 687 115 L 671 114 L 670 113 L 647 113 Z M 737 113 L 730 114 L 730 202 L 731 202 L 747 202 L 747 171 L 748 170 L 749 168 L 778 168 L 779 167 L 779 154 L 778 152 L 749 152 L 747 151 L 747 141 L 748 140 L 747 138 Q 749 136 748 132 L 750 130 L 784 130 L 785 129 L 785 114 L 781 113 L 769 113 L 768 114 L 766 113 L 737 113 Z M 462 140 Q 454 141 451 146 L 449 144 L 448 142 L 432 142 L 432 202 L 433 202 L 447 202 L 449 200 L 449 165 L 452 158 L 456 156 Q 464 154 468 157 L 472 165 L 472 201 L 474 202 L 489 202 L 490 198 L 490 185 L 489 184 L 490 180 L 490 164 L 488 155 L 485 149 Q 479 139 462 140 Z M 525 140 L 512 145 L 503 154 L 498 169 L 499 181 L 504 192 Q 511 201 525 203 L 538 203 L 553 197 L 557 193 L 557 190 L 549 183 L 546 183 L 540 189 L 533 191 L 522 188 Q 516 185 516 177 L 520 176 L 545 176 L 546 177 L 560 176 Q 561 159 553 150 Q 545 139 525 140 Z " /><path fill="rgb(0,0,0)" stroke="rgb(0,0,0)" stroke-width="1" opacity="0" d="M 371.5 129 Q 390.6 127.4 397 138.5 L 403 150.5 L 403 165.5 Q 400.1 178.1 390.5 184 L 382.5 187 L 371.5 187 Q 361.3 184.3 356 176.5 Q 350.1 168.4 351 153.5 Q 353.3 139.8 362.5 133 L 371.5 129 Z " /><path fill="rgb(0,0,0)" stroke="rgb(0,0,0)" stroke-width="1" opacity="0" d="M 592.5 129 Q 609 127 615 135.5 Q 617.3 140.3 616 148.5 L 612.5 154 L 604.5 157 L 589 157 L 589 130.5 L 591.5 130 L 592.5 129 Z " /><path fill="rgb(0,0,0)" stroke="rgb(0,0,0)" stroke-width="1" opacity="0" d="M 662.5 130 Q 686.6 127.4 695 140.5 L 700 152.5 L 700 163.5 L 695 176.5 L 690.5 181 Q 681.7 188.7 662.5 186 L 661 184.5 L 661 131.5 L 662.5 130 Z " /><path fill="rgb(0,0,0)" stroke="rgb(0,0,0)" stroke-width="1" opacity="0" d="M 528.5 153 Q 538.6 152.9 542 159.5 L 543 165 L 516.5 165 L 516 162.5 L 520.5 156 L 528.5 153 Z " /><path fill="rgb(227,227,227)" stroke="rgb(227,227,227)" stroke-width="1" opacity="0.9568627450980393" d="M 107.5 83 L 179.5 83 L 183.5 85 L 204 105.5 L 214.5 117 L 219.5 119 L 275.5 119 L 283 124.5 Q 285.7 128.3 284 136.5 L 283 137.5 L 283 153.5 L 282 154.5 L 280 212.5 Q 278.2 219.7 272.5 223 L 268.5 225 L 110.5 225 Q 104 223.5 101 218.5 L 99 214.5 L 98 199.5 L 97 198.5 L 97 187.5 L 96 186.5 L 95 165.5 L 94 164.5 L 94 154.5 L 93 153.5 L 93 142.5 L 91 131.5 L 91 121.5 L 90 120.5 L 90 106.5 L 93.5 102 L 99 100 L 101 89.5 L 105.5 84 L 107.5 83 Z " /><path fill="rgb(227,227,227)" stroke="rgb(227,227,227)" stroke-width="1" opacity="0.9568627450980393" d="M 199.5 86 L 266.5 86 Q 273.9 87.1 277 92.5 L 279 97.5 L 279 118 L 272.5 114 L 263.5 114 L 262.5 113 L 222.5 113 L 198 89.5 L 199.5 86 Z " /><path fill="rgb(227,227,227)" stroke="rgb(227,227,227)" stroke-width="1" opacity="0.9568627450980393" d="M 372.5 112 L 381.5 112 L 394.5 115 Q 404.6 119.4 411 127.5 L 420 143.5 L 422 161.5 L 420 172.5 L 416 181.5 L 405.5 194 Q 397.2 200.8 384.5 203 L 368.5 203 Q 350.3 199.3 341 186.5 Q 330.8 174.2 333 149.5 Q 336.3 131.3 348.5 122 L 357.5 116 L 372.5 112 Z M 372 129 L 363 133 Q 353 140 351 154 Q 350 168 356 177 Q 361 184 372 187 L 383 187 L 391 184 Q 400 178 403 166 L 403 151 L 397 139 Q 391 127 372 129 Z " /><path fill="rgb(227,227,227)" stroke="rgb(227,227,227)" stroke-width="1" opacity="0.9568627450980393" d="M 574.5 113 L 602.5 113 L 603.5 114 L 611.5 114 Q 622.8 116.8 629 124.5 Q 635.9 132.6 634 149.5 Q 631.9 158.9 625.5 164 L 612.5 171 L 589 172 L 589 199.5 L 588 202 L 571.5 202 L 571 201.5 L 571 114 L 574.5 113 Z M 593 129 L 592 130 L 589 131 L 589 157 L 605 157 L 613 154 L 616 149 Q 617 140 615 136 Q 609 127 593 129 Z " /><path fill="rgb(227,227,227)" stroke="rgb(227,227,227)" stroke-width="1" opacity="0.9568627450980393" d="M 646.5 113 L 669.5 113 L 670.5 114 L 686.5 115 Q 700.4 118.6 708 128.5 L 716 142.5 L 718 151.5 L 718 164.5 Q 715.8 165.7 717 170.5 L 712 182.5 L 702.5 193 Q 695.7 198.7 685.5 201 Q 679.3 199.2 677.5 202 L 644 202 L 644 114.5 L 645.5 114 L 646.5 113 Z M 663 130 L 661 132 L 661 185 L 663 186 Q 682 189 691 181 L 695 177 L 700 164 L 700 153 L 695 141 Q 687 127 663 130 Z " /><path fill="rgb(227,227,227)" stroke="rgb(227,227,227)" stroke-width="1" opacity="0.9568627450980393" d="M 736.5 113 L 765.5 113 L 767.5 114 L 768.5 113 L 780.5 113 L 785 114 L 785 128.5 L 783.5 130 L 749.5 130 L 748 131.5 Q 749.3 136.2 747 137.5 L 748 139.5 L 747 140.5 L 747 150.5 L 748.5 152 L 777.5 152 L 779 153.5 L 779 166.5 L 777.5 168 L 748.5 168 L 748 169.5 L 747 170.5 L 747 202 L 730.5 202 L 730 201.5 L 730 114 L 736.5 113 Z " /><path fill="rgb(227,227,227)" stroke="rgb(227,227,227)" stroke-width="1" opacity="0.9568627450980393" d="M 461.5 140 Q 478.9 138.6 485 148.5 L 488 154.5 L 490 163.5 L 490 179.5 L 489 183.5 L 490 184.5 L 490 197.5 L 489 202 L 473.5 202 L 472 200.5 L 472 164.5 L 467.5 157 Q 463.7 154.3 455.5 156 L 452 158 L 449 164.5 L 449 199.5 L 446.5 202 L 432.5 202 L 432 201.5 L 432 142 L 447.5 142 L 449 143.5 L 450.5 146 Q 454.3 141.3 461.5 140 Z " /><path fill="rgb(227,227,227)" stroke="rgb(227,227,227)" stroke-width="1" opacity="0.9568627450980393" d="M 524.5 140 Q 544.5 139 553 149.5 Q 561.1 158.7 560 176 L 545.5 177 L 544.5 176 L 519.5 176 L 516 177 Q 516.2 184.6 521.5 188 L 532.5 191 L 539.5 189 L 545.5 183 L 548.5 183 L 557 189.5 L 557 192.5 L 552.5 197 L 537.5 203 L 524.5 203 Q 510.8 200.8 504 191.5 L 499 180.5 L 498 168.5 L 503 153.5 L 511.5 145 L 524.5 140 Z M 529 153 L 521 156 L 516 163 L 517 165 L 543 165 L 542 160 Q 539 153 529 153 Z " /></svg>