<svg width="779" height="320" version="1.1" xmlns="http://www.w3.org/2000/svg" desc="Created with imagetracer.js version 1.2.6" ><path fill="rgb(0,0,0)" stroke="rgb(0,0,0)" stroke-width="1" opacity="0" d="M 0 0 L 779 0 L 779 320 L 0 320 L 0 0 Z M 208 112 L 207 113 L 163 113 L 161 114 L 157 118 L 155 123 L 156 125 Q 154 128 149 128 L 148 133 L 149 150 L 151 159 L 152 182 L 153 183 L 153 198 L 156 208 L 162 212 L 250 212 L 251 213 L 254 212 L 268 212 L 269 213 L 273 211 L 278 204 L 278 194 L 279 193 L 279 145 L 277 141 L 274 136 L 277 138 L 277 124 L 275 120 L 270 116 L 229 116 L 227 115 Q 222 118 227 120 Q 229 119 228 123 L 231 124 L 238 132 Q 240 131 239 134 L 243 136 L 244 135 L 271 135 L 270 137 L 272 137 L 273 140 L 274 141 L 240 141 L 238 139 L 234 139 Q 235 136 232 137 L 229 132 L 225 129 L 218 119 Q 215 120 216 118 L 208 112 Z M 344 136 L 342 138 L 333 141 L 328 145 L 320 156 Q 321 160 318 162 L 318 173 L 317 174 L 323 188 Q 329 197 343 200 L 361 199 L 373 191 L 381 176 L 381 161 L 375 150 L 369 143 Q 366 144 367 141 L 356 137 L 354 137 L 344 136 Z M 494 138 L 490 141 L 490 199 L 491 199 L 502 199 L 502 188 L 503 187 Q 504 180 502 178 L 518 178 L 526 175 Q 533 170 535 160 Q 534 151 530 146 Q 526 140 519 138 L 494 138 Z M 545 138 L 543 139 L 541 142 L 541 144 L 540 146 L 541 148 L 540 151 L 541 156 L 541 199 L 570 199 L 580 195 L 585 191 L 591 182 L 593 174 L 593 172 Q 592 167 594 166 L 593 161 L 591 159 L 592 157 L 587 148 L 578 141 L 569 138 L 545 138 Z M 605 138 L 603 139 L 601 141 L 601 151 L 600 152 L 601 155 L 601 199 L 613 199 L 613 175 L 635 175 L 636 174 L 636 164 L 621 164 L 620 163 L 613 164 L 613 150 L 638 150 L 639 147 L 638 142 L 638 138 L 605 138 Z M 398 154 Q 396 157 390 155 Q 386 157 388 164 L 388 166 Q 389 170 387 172 L 388 173 L 388 196 L 387 199 L 399 199 L 400 198 L 400 172 L 401 170 L 407 165 L 416 167 L 418 173 L 418 199 L 430 199 L 430 167 L 428 162 Q 424 156 418 154 L 409 154 L 403 155 L 401 159 L 398 154 Z M 456 154 L 451 155 L 446 158 L 439 166 Q 436 168 437 174 L 435 176 L 437 181 L 436 184 L 440 191 Q 445 198 455 200 Q 470 202 477 195 L 480 189 L 475 187 Q 476 183 474 184 L 474 186 L 473 185 Q 469 184 470 187 L 465 190 Q 458 191 455 189 L 449 183 Q 448 180 451 181 L 453 181 L 457 182 L 461 181 L 463 182 Q 470 180 481 181 L 483 178 Q 481 176 482 171 L 479 164 L 469 155 L 456 154 Z " /><path fill="rgb(0,0,0)" stroke="rgb(0,0,0)" stroke-width="1" opacity="0" d="M 345.5 149 L 347.5 149 L 352.5 150 L 354.5 150 L 357.5 150 L 366 157.5 L 368 161.5 L 369 169.5 L 367 172.5 L 368 175.5 L 359.5 186 L 354.5 188 L 343.5 188 L 334 181.5 L 330 172.5 L 330 164.5 Q 331.6 155.6 338.5 152 L 345.5 149 Z " /><path fill="rgb(0,0,0)" stroke="rgb(0,0,0)" stroke-width="1" opacity="0" d="M 506.5 149 Q 516.2 147.8 520 152.5 Q 522.3 155.7 521 162.5 L 514.5 167 L 502 167 L 503 160.5 Q 500.3 158.8 502 152.5 L 503 150 L 506.5 149 Z " /><path fill="rgb(0,0,0)" stroke="rgb(0,0,0)" stroke-width="1" opacity="0" d="M 554 150 L 567.5 150 Q 574.3 152.3 578 157.5 L 580 162.5 L 580 164.5 L 580 174.5 Q 578.5 181 573.5 184 L 563.5 188 L 553.5 188 L 554 186.5 L 553 173.5 L 554 171.5 L 554 169.5 L 553 153.5 L 554 150 Z " /><path fill="rgb(0,0,0)" stroke="rgb(0,0,0)" stroke-width="1" opacity="0" d="M 458.5 164 Q 465 164.3 468 167 L 470 171.5 L 467.5 172 L 450.5 171 L 449 171.5 L 451.5 167 L 458.5 164 Z " /><path fill="rgb(238,238,238)" stroke="rgb(238,238,238)" stroke-width="1" opacity="0.9372549019607843" d="M 207.5 112 L 216 117.5 Q 215.3 119.8 217.5 119 L 225 129 L 229 131.5 L 232 137 Q 235 136 234 139 L 237.5 139 L 239.5 141 L 273.5 141 L 273 139.5 L 271.5 137 L 270 136.5 L 270.5 135 L 243.5 135 L 242.5 136 L 239 133.5 Q 239.8 131.3 237.5 132 L 230.5 124 L 228 122.5 Q 229.1 119.2 226.5 120 Q 221.5 117.5 226.5 115 L 228.5 116 L 269.5 116 L 275 119.5 L 277 123.5 L 277 138 L 275 138.5 L 279 144.5 L 279 192.5 L 278 193.5 L 278 203.5 L 272.5 211 L 268.5 213 L 267.5 212 L 253.5 212 L 250.5 213 L 249.5 212 L 161.5 212 L 156 207.5 L 153 197.5 L 153 182.5 L 152 181.5 L 151 158.5 L 149 149.5 L 148 132.5 L 149 128 Q 153.9 128.1 156 124.5 L 155 122.5 L 157 117.5 L 160.5 114 L 162.5 113 L 206.5 113 L 207.5 112 Z " /><path fill="rgb(238,238,238)" stroke="rgb(238,238,238)" stroke-width="1" opacity="0.9372549019607843" d="M 343.5 136 L 353.5 137 L 355.5 137 L 367 141 Q 365.9 143.7 368.5 143 L 375 149.5 L 381 160.5 L 381 175.5 L 373 191 L 360.5 199 L 342.5 200 Q 329.1 197.3 323 187.5 L 317 173.5 L 318 172.5 L 318 161.5 Q 320.6 160.1 320 155.5 L 327.5 145 L 332.5 141 L 341.5 138 L 343.5 136 Z M 346 149 L 339 152 Q 332 156 330 165 L 330 173 L 334 182 L 344 188 L 355 188 L 360 186 L 368 176 L 367 173 L 369 170 L 368 162 L 366 158 L 358 150 L 355 150 L 353 150 L 348 149 L 346 149 Z " /><path fill="rgb(238,238,238)" stroke="rgb(238,238,238)" stroke-width="1" opacity="0.9372549019607843" d="M 493.5 138 L 518.5 138 Q 526.1 139.8 530 145.5 Q 534.3 150.7 535 159.5 Q 532.6 169.6 525.5 175 L 517.5 178 L 502 178 Q 503.7 180.4 503 186.5 L 502 187.5 L 502 199 L 490.5 199 L 490 198.5 L 490 140.5 L 493.5 138 Z M 507 149 L 503 150 L 502 153 Q 500 159 503 161 L 502 167 L 515 167 L 521 163 Q 522 156 520 153 Q 516 148 507 149 Z " /><path fill="rgb(238,238,238)" stroke="rgb(238,238,238)" stroke-width="1" opacity="0.9372549019607843" d="M 544.5 138 L 568.5 138 L 577.5 141 L 587 148 L 592 156.5 L 591 158.5 L 593 160.5 L 594 165.5 Q 591.8 166.8 593 171.5 L 593 173.5 L 591 181.5 L 585 191 L 579.5 195 L 569.5 199 L 541 199 L 541 155.5 L 540 150.5 L 541 147.5 L 540 145.5 L 541 143.5 L 541 141.5 L 542.5 139 L 544.5 138 Z M 554 150 L 553 154 L 554 170 L 554 172 L 553 174 L 554 187 L 554 188 L 564 188 L 574 184 Q 578 181 580 175 L 580 165 L 580 163 L 578 158 Q 574 152 568 150 L 554 150 Z " /><path fill="rgb(238,238,238)" stroke="rgb(238,238,238)" stroke-width="1" opacity="0.9372549019607843" d="M 604.5 138 L 637.5 138 L 638 141.5 L 639 146.5 L 637.5 150 L 613 150 L 613 164 L 619.5 163 L 620.5 164 L 636 164 L 636 173.5 L 634.5 175 L 613 175 L 613 199 L 601 199 L 601 154.5 L 600 151.5 L 601 150.5 L 601 140.5 L 602.5 139 L 604.5 138 Z " /><path fill="rgb(238,238,238)" stroke="rgb(238,238,238)" stroke-width="1" opacity="0.9372549019607843" d="M 397.5 154 L 400.5 159 L 403 155 L 408.5 154 L 417.5 154 Q 424.3 156.3 428 161.5 L 430 166.5 L 430 199 L 418 199 L 418 172.5 L 416 167 L 406.5 165 L 401 169.5 L 400 171.5 L 400 197.5 L 398.5 199 L 387 198.5 L 388 195.5 L 388 172.5 L 387 171.5 Q 389.3 170.3 388 165.5 L 388 163.5 Q 386.3 156.8 389.5 155 Q 395.8 156.8 397.5 154 Z " /><path fill="rgb(238,238,238)" stroke="rgb(238,238,238)" stroke-width="1" opacity="0.9372549019607843" d="M 455.5 154 L 468.5 155 L 479 163.5 L 482 170.5 Q 480.5 176 483 177.5 L 480.5 181 Q 469.6 179.6 462.5 182 L 460.5 181 L 456.5 182 L 452.5 181 L 450.5 181 Q 448.3 180.3 449 182.5 L 454.5 189 Q 457.7 191.3 464.5 190 L 470 186.5 Q 469.2 183.9 472.5 185 L 475 184 L 476.5 188 L 480 189 L 476.5 195 Q 470 202 454.5 200 Q 444.5 198 440 190.5 L 436 183.5 L 437 180.5 L 435 175.5 L 437 173.5 Q 436.3 167.8 439 165.5 L 445.5 158 L 450.5 155 L 455.5 154 Z M 459 164 L 452 167 L 450 171 L 468 172 L 470 172 L 468 167 Q 465 164 459 164 Z " /></svg>