<svg width="749" height="333" version="1.1" xmlns="http://www.w3.org/2000/svg" desc="Created with imagetracer.js version 1.2.6" ><path fill="rgb(5,5,5)" stroke="rgb(5,5,5)" stroke-width="1" opacity="0.09411764705882353" d="M 0 0 L 749 0 L 749 333 L 0 333 L 0 0 Z M 252 112 L 255 115 L 256 115 L 252 112 Z M 195 119 Q 193 122 196 121 L 195 119 Z M 257 119 L 256 133 L 255 132 L 252 133 L 257 134 L 257 119 Z M 118 123 L 118 124 L 120 124 L 118 123 Z M 208 124 L 209 126 Q 210 123 208 124 Z M 211 127 L 212 129 Q 213 126 211 127 Z M 213 129 L 214 131 L 215 131 L 213 129 Z M 216 131 L 216 132 L 252 132 L 216 131 Z M 328 132 L 328 133 L 339 133 L 328 132 Z M 341 132 L 343 134 L 345 134 L 341 132 Z M 325 133 L 325 134 L 327 134 L 325 133 Z M 322 134 L 322 135 L 324 135 L 322 134 Z M 348 134 Q 346 137 349 136 L 348 134 Z M 483 134 L 481 136 L 482 140 L 483 136 L 483 134 Z M 488 134 L 488 135 L 493 135 L 488 134 Z M 503 134 L 503 135 L 506 135 L 503 134 Z M 509 134 L 509 135 L 511 135 L 509 134 Z M 557 134 L 557 135 L 565 135 L 557 134 Z M 605 134 L 604 136 L 606 135 L 605 134 Z M 608 134 L 608 135 L 634 135 L 608 134 Z M 319 135 L 319 136 L 321 136 L 319 135 Z M 512 135 L 512 136 L 515 136 L 512 135 Z M 567 135 L 567 136 L 571 136 L 567 135 Z M 516 136 L 516 137 L 519 137 L 516 136 Z M 538 136 L 537 198 L 538 198 L 538 136 Z M 572 136 L 572 137 L 575 137 L 572 136 Z M 643 136 L 642 140 L 643 140 L 643 136 Z M 213 137 L 213 138 L 252 138 L 213 137 Z M 601 137 L 600 143 L 601 143 L 601 137 Z M 603 138 L 601 144 L 602 148 L 601 151 L 602 152 L 602 169 L 602 171 L 601 180 L 602 183 L 601 186 L 602 189 L 602 193 L 601 189 L 600 189 L 601 197 L 602 194 L 602 197 Q 600 198 603 199 L 604 199 L 603 198 L 603 138 Z M 527 142 L 526 145 L 527 145 L 527 142 Z M 261 144 L 260 161 L 261 161 L 261 144 Z M 363 145 L 362 148 L 363 148 L 363 145 Z M 482 145 L 481 153 L 482 153 L 482 145 Z M 331 146 L 331 147 L 340 147 L 331 146 Z M 500 146 L 500 147 L 507 147 L 500 146 Z M 589 146 L 588 149 L 589 149 L 589 146 Z M 554 147 L 554 148 L 565 148 L 554 147 Z M 619 147 L 619 148 L 640 148 L 619 147 Z M 497 149 L 496 163 L 497 163 L 497 149 Z M 530 150 L 529 160 L 530 160 L 530 150 Z M 399 151 L 399 152 L 402 152 L 399 151 Z M 448 151 L 448 152 L 453 152 L 448 151 Z M 456 151 L 455 153 L 458 153 L 456 151 Z M 375 153 L 376 182 L 376 155 L 377 154 L 375 153 Z M 388 153 L 388 155 Q 387 157 390 156 L 389 155 Q 390 152 388 153 Z M 411 153 L 413 155 L 414 155 L 411 153 Z M 465 155 L 464 157 L 467 158 L 465 155 Z M 516 155 L 515 159 L 516 159 L 516 155 Z M 482 157 L 481 164 L 482 164 L 482 157 Z M 616 157 L 615 161 L 617 161 L 616 157 Z M 469 159 Q 467 162 470 161 L 469 159 Z M 418 161 L 417 163 L 420 164 L 418 161 Z M 369 162 L 368 172 L 369 172 L 369 162 Z M 450 162 L 452 164 L 454 164 L 450 162 Z M 528 162 L 529 164 L 531 163 L 528 162 Z M 446 163 L 446 164 L 448 164 L 446 163 Z M 301 164 L 300 168 L 301 168 L 301 164 Z M 444 164 Q 441 166 444 167 L 445 165 L 444 164 Z M 498 164 L 498 165 L 508 165 L 498 164 Z M 580 164 L 579 168 L 580 168 L 580 164 Z M 404 165 L 403 168 L 405 169 L 404 165 Z M 471 165 L 471 167 L 473 166 L 471 165 Z M 640 165 L 639 168 L 640 168 L 640 165 Z M 482 166 L 481 171 L 482 171 L 482 166 Z M 420 167 L 419 173 L 420 173 L 420 167 Z M 301 169 L 300 173 L 301 173 L 301 169 Z M 444 170 L 444 171 L 449 171 L 444 170 Z M 451 170 L 451 171 L 456 171 L 451 170 Z M 261 172 L 260 182 L 261 182 L 261 172 Z M 406 172 L 405 188 L 406 188 L 406 172 Z M 579 172 L 578 175 L 579 175 L 579 172 Z M 302 173 L 301 176 L 302 176 L 302 173 Z M 621 173 L 621 174 L 627 174 L 621 173 Z M 482 174 L 481 181 L 482 181 L 482 174 Z M 420 175 L 419 182 L 420 182 L 420 175 Z M 518 175 L 518 176 L 520 176 L 518 175 Z M 390 176 L 389 191 L 390 191 L 390 176 Z M 577 176 L 576 179 L 577 179 L 577 176 Z M 498 177 L 498 178 L 514 178 L 498 177 Z M 497 178 L 496 198 L 497 198 L 497 178 Z M 447 180 L 447 181 L 472 181 L 447 180 Z M 304 182 L 305 184 Q 306 181 304 182 Z M 482 184 L 481 189 L 482 189 L 482 184 Z M 259 185 L 258 204 L 259 204 L 259 185 Z M 420 185 L 419 191 L 420 191 L 420 185 Z M 459 185 L 457 188 L 459 188 Q 462 187 459 185 Z M 330 186 L 330 187 L 333 187 L 330 186 Z M 337 186 L 337 187 L 340 187 L 337 186 Z M 445 188 L 445 189 L 449 189 L 445 188 Z M 454 188 L 454 189 L 456 189 L 454 188 Z M 482 192 L 481 197 L 482 197 L 482 192 Z M 390 193 L 389 197 L 388 199 L 390 198 L 390 193 Z M 120 194 L 119 197 L 120 197 L 120 194 Z M 316 194 L 315 196 L 317 197 L 316 194 Z M 374 194 L 374 195 Q 376 194 375 197 L 376 197 Q 377 193 374 194 Z M 616 194 L 615 199 L 617 199 L 616 194 Z M 438 197 L 439 199 L 441 199 L 438 197 Z M 464 197 L 461 198 L 461 199 Q 464 200 465 198 L 464 197 Z M 120 198 L 119 202 L 120 202 L 120 198 Z M 321 198 L 321 199 L 323 199 L 321 198 Z M 346 198 L 346 199 L 349 199 L 346 198 Z M 407 198 L 408 200 Q 409 197 407 198 Z M 418 198 L 415 199 L 415 200 Q 418 201 419 199 L 418 198 Z M 565 198 L 565 199 L 571 199 L 565 198 Z M 325 199 L 325 200 L 328 200 L 325 199 Z M 442 199 L 442 200 L 444 200 L 442 199 Z M 457 199 L 457 200 L 459 200 L 457 199 Z M 488 199 L 488 200 L 491 200 L 488 199 Z M 539 199 L 539 200 L 542 200 L 539 199 Z M 548 199 L 548 200 L 553 200 L 548 199 Z M 446 200 L 446 201 L 456 201 L 446 200 Z M 120 208 L 121 210 Q 122 207 120 208 Z M 257 210 L 257 213 L 258 213 Q 259 209 257 210 Z M 253 215 L 251 216 L 251 217 L 254 216 L 253 215 Z M 126 216 L 126 217 L 128 217 L 126 216 Z M 218 216 L 218 217 L 222 217 L 218 216 Z M 226 216 L 226 217 L 228 217 L 226 216 Z " /><path fill="rgb(167,167,167)" stroke="rgb(167,167,167)" stroke-width="1" opacity="0.09803921568627451" d="M 250.5 111 L 257 115.5 L 255.5 115 Q 250.9 114.3 250.5 111 Z " /><path fill="rgb(167,167,167)" stroke="rgb(167,167,167)" stroke-width="1" opacity="0.09803921568627451" d="M 189.5 114 L 190.5 116 L 189.5 114 Z " /><path fill="rgb(167,167,167)" stroke="rgb(167,167,167)" stroke-width="1" opacity="0.09803921568627451" d="M 194.5 119 L 195.5 121 Q 192.7 121.7 194.5 119 Z " /><path fill="rgb(167,167,167)" stroke="rgb(167,167,167)" stroke-width="1" opacity="0.09803921568627451" d="M 256.5 119 L 257 134 L 251.5 132 L 215.5 132 L 210 127.5 L 212 127 Q 210.9 129.7 213.5 129 L 215.5 131 L 251.5 131 L 255.5 133 L 256.5 119 Z " /><path fill="rgb(167,167,167)" stroke="rgb(167,167,167)" stroke-width="1" opacity="0.09803921568627451" d="M 122.5 120 L 121.5 122 L 122.5 120 Z " /><path fill="rgb(167,167,167)" stroke="rgb(167,167,167)" stroke-width="1" opacity="0.09803921568627451" d="M 117.5 123 L 120 123.5 L 117.5 124 L 117.5 123 Z " /><path fill="rgb(167,167,167)" stroke="rgb(167,167,167)" stroke-width="1" opacity="0.09803921568627451" d="M 207.5 124 Q 209.8 123.3 209 125.5 L 207.5 124 Z " /><path fill="rgb(167,167,167)" stroke="rgb(167,167,167)" stroke-width="1" opacity="0.09803921568627451" d="M 327.5 132 L 339 132.5 L 327.5 133 L 317.5 137 L 318.5 135 L 327.5 132 Z " /><path fill="rgb(167,167,167)" stroke="rgb(167,167,167)" stroke-width="1" opacity="0.09803921568627451" d="M 340.5 132 L 346 134.5 L 344.5 134 Q 339.7 134 340.5 132 Z " /><path fill="rgb(167,167,167)" stroke="rgb(167,167,167)" stroke-width="1" opacity="0.09803921568627451" d="M 347.5 134 L 348.5 136 Q 345.7 136.7 347.5 134 Z " /><path fill="rgb(167,167,167)" stroke="rgb(167,167,167)" stroke-width="1" opacity="0.09803921568627451" d="M 482.5 134 L 483 135.5 L 481.5 140 L 481 135.5 L 482.5 134 Z " /><path fill="rgb(167,167,167)" stroke="rgb(167,167,167)" stroke-width="1" opacity="0.09803921568627451" d="M 487.5 134 L 493 134.5 L 487.5 135 L 487.5 134 Z " /><path fill="rgb(167,167,167)" stroke="rgb(167,167,167)" stroke-width="1" opacity="0.09803921568627451" d="M 502.5 134 L 506 134.5 L 502.5 135 L 502.5 134 Z " /><path fill="rgb(167,167,167)" stroke="rgb(167,167,167)" stroke-width="1" opacity="0.09803921568627451" d="M 508.5 134 L 518.5 136 L 523 139.5 L 520.5 138 L 508.5 135 L 508.5 134 Z " /><path fill="rgb(167,167,167)" stroke="rgb(167,167,167)" stroke-width="1" opacity="0.09803921568627451" d="M 539.5 134 L 538 136.5 L 537.5 198 L 537 136.5 L 536 135.5 Q 537.8 137.1 539.5 134 Z " /><path fill="rgb(167,167,167)" stroke="rgb(167,167,167)" stroke-width="1" opacity="0.09803921568627451" d="M 556.5 134 L 565 134.5 L 556.5 135 L 556.5 134 Z " /><path fill="rgb(167,167,167)" stroke="rgb(167,167,167)" stroke-width="1" opacity="0.09803921568627451" d="M 604.5 134 L 606 134.5 L 602.5 137 L 604.5 134 Z " /><path fill="rgb(167,167,167)" stroke="rgb(167,167,167)" stroke-width="1" opacity="0.09803921568627451" d="M 607.5 134 L 634 134.5 L 607.5 135 L 607.5 134 Z " /><path fill="rgb(167,167,167)" stroke="rgb(167,167,167)" stroke-width="1" opacity="0.09803921568627451" d="M 640.5 134 Q 643.8 134.8 643 139.5 L 642 139.5 Q 642.5 134.8 640.5 134 Z " /><path fill="rgb(167,167,167)" stroke="rgb(167,167,167)" stroke-width="1" opacity="0.09803921568627451" d="M 566.5 135 L 574.5 136 L 576 137.5 L 574.5 137 L 566.5 136 L 566.5 135 Z " /><path fill="rgb(167,167,167)" stroke="rgb(167,167,167)" stroke-width="1" opacity="0.09803921568627451" d="M 351.5 136 L 355 138.5 L 352.5 137 L 351.5 136 Z " /><path fill="rgb(167,167,167)" stroke="rgb(167,167,167)" stroke-width="1" opacity="0.09803921568627451" d="M 212.5 137 L 252 137.5 L 212.5 138 L 212.5 137 Z " /><path fill="rgb(167,167,167)" stroke="rgb(167,167,167)" stroke-width="1" opacity="0.09803921568627451" d="M 600.5 137 L 601.5 143 L 602.5 138 L 603 197.5 L 604 198.5 L 602.5 199 Q 598 197 600 188.5 Q 603.5 187 601 185.5 L 602 182.5 L 601 179.5 L 602 170.5 L 602 168.5 L 602 151.5 L 601 150.5 L 602 147.5 Q 598.9 143.6 600.5 137 Z M 602 188 L 601 193 L 602 193 L 602 188 Z M 602 194 L 601 197 L 602 197 L 602 194 Z " /><path fill="rgb(167,167,167)" stroke="rgb(167,167,167)" stroke-width="1" opacity="0.09803921568627451" d="M 255.5 138 L 258.5 142 L 255.5 138 Z " /><path fill="rgb(167,167,167)" stroke="rgb(167,167,167)" stroke-width="1" opacity="0.09803921568627451" d="M 578.5 138 L 579.5 140 L 578.5 138 Z " /><path fill="rgb(167,167,167)" stroke="rgb(167,167,167)" stroke-width="1" opacity="0.09803921568627451" d="M 583.5 141 L 585 143.5 L 583 142.5 L 583.5 141 Z " /><path fill="rgb(167,167,167)" stroke="rgb(167,167,167)" stroke-width="1" opacity="0.09803921568627451" d="M 309.5 142 L 307.5 145 L 309.5 142 Z " /><path fill="rgb(167,167,167)" stroke="rgb(167,167,167)" stroke-width="1" opacity="0.09803921568627451" d="M 526.5 142 L 527 144.5 L 526 144.5 L 526.5 142 Z " /><path fill="rgb(167,167,167)" stroke="rgb(167,167,167)" stroke-width="1" opacity="0.09803921568627451" d="M 260.5 144 L 261 160.5 L 260 160.5 L 260.5 144 Z " /><path fill="rgb(167,167,167)" stroke="rgb(167,167,167)" stroke-width="1" opacity="0.09803921568627451" d="M 362.5 145 L 363 147.5 L 362 147.5 L 362.5 145 Z " /><path fill="rgb(167,167,167)" stroke="rgb(167,167,167)" stroke-width="1" opacity="0.09803921568627451" d="M 481.5 145 L 482 152.5 L 481 152.5 L 481.5 145 Z " /><path fill="rgb(167,167,167)" stroke="rgb(167,167,167)" stroke-width="1" opacity="0.09803921568627451" d="M 528.5 145 L 527.5 147 L 528.5 145 Z " /><path fill="rgb(167,167,167)" stroke="rgb(167,167,167)" stroke-width="1" opacity="0.09803921568627451" d="M 587.5 145 L 589 148.5 L 588 148.5 L 587.5 145 Z " /><path fill="rgb(167,167,167)" stroke="rgb(167,167,167)" stroke-width="1" opacity="0.09803921568627451" d="M 642.5 145 L 641.5 147 L 642.5 145 Z " /><path fill="rgb(167,167,167)" stroke="rgb(167,167,167)" stroke-width="1" opacity="0.09803921568627451" d="M 330.5 146 L 340 146.5 L 330.5 147 L 330.5 146 Z " /><path fill="rgb(167,167,167)" stroke="rgb(167,167,167)" stroke-width="1" opacity="0.09803921568627451" d="M 499.5 146 L 507 146.5 L 499.5 147 L 499.5 146 Z " /><path fill="rgb(167,167,167)" stroke="rgb(167,167,167)" stroke-width="1" opacity="0.09803921568627451" d="M 306.5 147 L 305.5 149 L 306.5 147 Z " /><path fill="rgb(167,167,167)" stroke="rgb(167,167,167)" stroke-width="1" opacity="0.09803921568627451" d="M 553.5 147 L 565 147.5 L 553.5 148 L 553.5 147 Z " /><path fill="rgb(167,167,167)" stroke="rgb(167,167,167)" stroke-width="1" opacity="0.09803921568627451" d="M 618.5 147 L 640 147.5 L 618.5 148 L 618.5 147 Z " /><path fill="rgb(167,167,167)" stroke="rgb(167,167,167)" stroke-width="1" opacity="0.09803921568627451" d="M 530.5 148 L 531 149.5 L 530 150.5 L 529.5 160 L 529 150.5 L 530.5 148 Z " /><path fill="rgb(167,167,167)" stroke="rgb(167,167,167)" stroke-width="1" opacity="0.09803921568627451" d="M 496.5 149 L 497 162.5 L 496 162.5 L 496.5 149 Z " /><path fill="rgb(167,167,167)" stroke="rgb(167,167,167)" stroke-width="1" opacity="0.09803921568627451" d="M 569.5 149 L 570.5 151 L 569.5 149 Z " /><path fill="rgb(167,167,167)" stroke="rgb(167,167,167)" stroke-width="1" opacity="0.09803921568627451" d="M 303.5 150 L 305 150.5 L 302.5 152 L 303.5 150 Z " /><path fill="rgb(167,167,167)" stroke="rgb(167,167,167)" stroke-width="1" opacity="0.09803921568627451" d="M 347.5 150 L 349.5 153 L 347.5 150 Z " /><path fill="rgb(167,167,167)" stroke="rgb(167,167,167)" stroke-width="1" opacity="0.09803921568627451" d="M 513.5 150 L 515 152.5 L 514 152.5 L 513.5 150 Z " /><path fill="rgb(167,167,167)" stroke="rgb(167,167,167)" stroke-width="1" opacity="0.09803921568627451" d="M 398.5 151 L 402 151.5 L 398.5 152 L 398.5 151 Z " /><path fill="rgb(167,167,167)" stroke="rgb(167,167,167)" stroke-width="1" opacity="0.09803921568627451" d="M 444.5 151 L 443.5 153 L 442 152.5 L 444.5 151 Z " /><path fill="rgb(167,167,167)" stroke="rgb(167,167,167)" stroke-width="1" opacity="0.09803921568627451" d="M 447.5 151 L 453 151.5 L 447.5 152 L 447.5 151 Z " /><path fill="rgb(167,167,167)" stroke="rgb(167,167,167)" stroke-width="1" opacity="0.09803921568627451" d="M 455.5 151 L 458 152.5 L 455 153 L 455.5 151 Z " /><path fill="rgb(167,167,167)" stroke="rgb(167,167,167)" stroke-width="1" opacity="0.09803921568627451" d="M 366.5 152 L 368 154.5 L 366.5 157 L 366 155.5 L 367 153.5 L 366.5 152 Z " /><path fill="rgb(167,167,167)" stroke="rgb(167,167,167)" stroke-width="1" opacity="0.09803921568627451" d="M 573.5 152 L 574.5 154 L 573.5 152 Z " /><path fill="rgb(167,167,167)" stroke="rgb(167,167,167)" stroke-width="1" opacity="0.09803921568627451" d="M 375 153 L 377 153.5 L 376 154.5 L 375.5 182 L 375 153 Z " /><path fill="rgb(167,167,167)" stroke="rgb(167,167,167)" stroke-width="1" opacity="0.09803921568627451" d="M 387.5 153 Q 389.8 152.3 389 154.5 L 389.5 156 Q 387.3 156.8 388 154.5 L 387.5 153 Z " /><path fill="rgb(167,167,167)" stroke="rgb(167,167,167)" stroke-width="1" opacity="0.09803921568627451" d="M 392.5 153 L 391.5 155 L 392.5 153 Z " /><path fill="rgb(167,167,167)" stroke="rgb(167,167,167)" stroke-width="1" opacity="0.09803921568627451" d="M 410.5 153 Q 414.5 152.5 415 155.5 L 413.5 155 Q 409.8 154.7 410.5 153 Z " /><path fill="rgb(167,167,167)" stroke="rgb(167,167,167)" stroke-width="1" opacity="0.09803921568627451" d="M 438.5 153 L 440 153.5 L 436.5 155 L 436.5 154 L 438.5 153 Z " /><path fill="rgb(167,167,167)" stroke="rgb(167,167,167)" stroke-width="1" opacity="0.09803921568627451" d="M 460.5 153 Q 467.4 154.6 470 160.5 L 468 161 L 466.5 158 L 464 156.5 Q 464.8 154.3 462.5 155 L 460.5 153 Z " /><path fill="rgb(167,167,167)" stroke="rgb(167,167,167)" stroke-width="1" opacity="0.09803921568627451" d="M 302.5 154 L 301.5 156 L 302.5 154 Z " /><path fill="rgb(167,167,167)" stroke="rgb(167,167,167)" stroke-width="1" opacity="0.09803921568627451" d="M 515.5 155 L 516 158.5 L 514.5 161 L 514 159.5 L 515.5 155 Z " /><path fill="rgb(167,167,167)" stroke="rgb(167,167,167)" stroke-width="1" opacity="0.09803921568627451" d="M 576.5 156 L 575.5 158 L 576.5 156 Z " /><path fill="rgb(167,167,167)" stroke="rgb(167,167,167)" stroke-width="1" opacity="0.09803921568627451" d="M 481.5 157 L 482 163.5 L 481 163.5 L 481.5 157 Z " /><path fill="rgb(167,167,167)" stroke="rgb(167,167,167)" stroke-width="1" opacity="0.09803921568627451" d="M 615.5 157 L 617 160.5 L 615 161 L 615.5 157 Z " /><path fill="rgb(167,167,167)" stroke="rgb(167,167,167)" stroke-width="1" opacity="0.09803921568627451" d="M 577.5 158 L 578.5 160 L 577.5 158 Z " /><path fill="rgb(167,167,167)" stroke="rgb(167,167,167)" stroke-width="1" opacity="0.09803921568627451" d="M 417.5 159 L 419.5 164 L 417 162.5 L 418 160.5 L 417.5 159 Z " /><path fill="rgb(167,167,167)" stroke="rgb(167,167,167)" stroke-width="1" opacity="0.09803921568627451" d="M 429.5 161 L 429 162.5 L 427.5 165 L 428 163.5 L 429.5 161 Z " /><path fill="rgb(167,167,167)" stroke="rgb(167,167,167)" stroke-width="1" opacity="0.09803921568627451" d="M 638.5 161 L 640 163.5 L 639 163.5 L 638.5 161 Z " /><path fill="rgb(167,167,167)" stroke="rgb(167,167,167)" stroke-width="1" opacity="0.09803921568627451" d="M 368.5 162 L 369 171.5 L 368 171.5 L 368.5 162 Z " /><path fill="rgb(167,167,167)" stroke="rgb(167,167,167)" stroke-width="1" opacity="0.09803921568627451" d="M 449.5 162 L 454 163.5 L 451.5 164 L 449.5 162 Z " /><path fill="rgb(167,167,167)" stroke="rgb(167,167,167)" stroke-width="1" opacity="0.09803921568627451" d="M 512.5 162 L 511.5 164 L 512.5 162 Z " /><path fill="rgb(167,167,167)" stroke="rgb(167,167,167)" stroke-width="1" opacity="0.09803921568627451" d="M 528 162 L 531 162.5 L 528.5 164 L 528 162 Z " /><path fill="rgb(167,167,167)" stroke="rgb(167,167,167)" stroke-width="1" opacity="0.09803921568627451" d="M 445.5 163 L 448 163.5 L 444 165.5 L 442.5 168 L 442 165.5 L 443.5 164 L 445.5 163 Z " /><path fill="rgb(167,167,167)" stroke="rgb(167,167,167)" stroke-width="1" opacity="0.09803921568627451" d="M 470.5 163 L 471 165 L 473 165.5 L 473 167.5 L 472.5 169 L 470.5 163 Z " /><path fill="rgb(167,167,167)" stroke="rgb(167,167,167)" stroke-width="1" opacity="0.09803921568627451" d="M 300.5 164 L 301 167.5 L 300 167.5 L 300.5 164 Z " /><path fill="rgb(167,167,167)" stroke="rgb(167,167,167)" stroke-width="1" opacity="0.09803921568627451" d="M 497.5 164 L 508 164.5 L 497.5 165 L 497.5 164 Z " /><path fill="rgb(167,167,167)" stroke="rgb(167,167,167)" stroke-width="1" opacity="0.09803921568627451" d="M 579.5 164 L 580 167.5 L 579 167.5 L 579.5 164 Z " /><path fill="rgb(167,167,167)" stroke="rgb(167,167,167)" stroke-width="1" opacity="0.09803921568627451" d="M 392.5 165 L 393.5 167 L 392.5 165 Z " /><path fill="rgb(167,167,167)" stroke="rgb(167,167,167)" stroke-width="1" opacity="0.09803921568627451" d="M 403.5 165 L 406 170.5 L 405 170.5 Q 402 168.7 403.5 165 Z " /><path fill="rgb(167,167,167)" stroke="rgb(167,167,167)" stroke-width="1" opacity="0.09803921568627451" d="M 639.5 165 L 641 168.5 L 639 167.5 L 639.5 165 Z " /><path fill="rgb(167,167,167)" stroke="rgb(167,167,167)" stroke-width="1" opacity="0.09803921568627451" d="M 481.5 166 L 482 170.5 L 481 170.5 L 481.5 166 Z " /><path fill="rgb(167,167,167)" stroke="rgb(167,167,167)" stroke-width="1" opacity="0.09803921568627451" d="M 527.5 166 L 527 167.5 L 526.5 169 L 526 167.5 L 527.5 166 Z " /><path fill="rgb(167,167,167)" stroke="rgb(167,167,167)" stroke-width="1" opacity="0.09803921568627451" d="M 419.5 167 L 420 172.5 L 419 172.5 L 419.5 167 Z " /><path fill="rgb(167,167,167)" stroke="rgb(167,167,167)" stroke-width="1" opacity="0.09803921568627451" d="M 458.5 167 L 460 169.5 L 459 169.5 L 458.5 167 Z " /><path fill="rgb(167,167,167)" stroke="rgb(167,167,167)" stroke-width="1" opacity="0.09803921568627451" d="M 426.5 168 L 426 169.5 L 425.5 171 L 425 169.5 L 426.5 168 Z " /><path fill="rgb(167,167,167)" stroke="rgb(167,167,167)" stroke-width="1" opacity="0.09803921568627451" d="M 300.5 169 L 302 175.5 L 301 175.5 L 300.5 169 Z " /><path fill="rgb(167,167,167)" stroke="rgb(167,167,167)" stroke-width="1" opacity="0.09803921568627451" d="M 443.5 170 L 449 170.5 L 443.5 171 L 443.5 170 Z " /><path fill="rgb(167,167,167)" stroke="rgb(167,167,167)" stroke-width="1" opacity="0.09803921568627451" d="M 450.5 170 L 456 170.5 L 450.5 171 L 450.5 170 Z " /><path fill="rgb(167,167,167)" stroke="rgb(167,167,167)" stroke-width="1" opacity="0.09803921568627451" d="M 523.5 171 L 522.5 173 L 523.5 171 Z " /><path fill="rgb(167,167,167)" stroke="rgb(167,167,167)" stroke-width="1" opacity="0.09803921568627451" d="M 260.5 172 L 261 181.5 L 260 181.5 L 260.5 172 Z " /><path fill="rgb(167,167,167)" stroke="rgb(167,167,167)" stroke-width="1" opacity="0.09803921568627451" d="M 405.5 172 L 406 187.5 L 405 187.5 L 405.5 172 Z " /><path fill="rgb(167,167,167)" stroke="rgb(167,167,167)" stroke-width="1" opacity="0.09803921568627451" d="M 578.5 172 L 579 174.5 L 578 174.5 L 578.5 172 Z " /><path fill="rgb(167,167,167)" stroke="rgb(167,167,167)" stroke-width="1" opacity="0.09803921568627451" d="M 620.5 173 L 627 173.5 L 620.5 174 L 620.5 173 Z " /><path fill="rgb(167,167,167)" stroke="rgb(167,167,167)" stroke-width="1" opacity="0.09803921568627451" d="M 481.5 174 L 482 180.5 L 481 180.5 L 481.5 174 Z " /><path fill="rgb(167,167,167)" stroke="rgb(167,167,167)" stroke-width="1" opacity="0.09803921568627451" d="M 368.5 175 L 367.5 177 L 368.5 175 Z " /><path fill="rgb(167,167,167)" stroke="rgb(167,167,167)" stroke-width="1" opacity="0.09803921568627451" d="M 419.5 175 L 420 181.5 L 419 181.5 L 419.5 175 Z " /><path fill="rgb(167,167,167)" stroke="rgb(167,167,167)" stroke-width="1" opacity="0.09803921568627451" d="M 517.5 175 L 520 175.5 L 515.5 177 L 515.5 176 L 517.5 175 Z " /><path fill="rgb(167,167,167)" stroke="rgb(167,167,167)" stroke-width="1" opacity="0.09803921568627451" d="M 389.5 176 L 390 190.5 L 389 190.5 L 389.5 176 Z " /><path fill="rgb(167,167,167)" stroke="rgb(167,167,167)" stroke-width="1" opacity="0.09803921568627451" d="M 576.5 176 L 577 178.5 L 576 178.5 L 576.5 176 Z " /><path fill="rgb(167,167,167)" stroke="rgb(167,167,167)" stroke-width="1" opacity="0.09803921568627451" d="M 497.5 177 L 514 177.5 L 497 178 L 496.5 198 L 496 178.5 L 497.5 177 Z " /><path fill="rgb(167,167,167)" stroke="rgb(167,167,167)" stroke-width="1" opacity="0.09803921568627451" d="M 302.5 178 L 303.5 180 L 302.5 178 Z " /><path fill="rgb(167,167,167)" stroke="rgb(167,167,167)" stroke-width="1" opacity="0.09803921568627451" d="M 348.5 179 L 347.5 181 L 348.5 179 Z " /><path fill="rgb(167,167,167)" stroke="rgb(167,167,167)" stroke-width="1" opacity="0.09803921568627451" d="M 472.5 179 L 471.5 181 L 446 180.5 L 471.5 180 L 472.5 179 Z " /><path fill="rgb(167,167,167)" stroke="rgb(167,167,167)" stroke-width="1" opacity="0.09803921568627451" d="M 303.5 182 Q 305.8 181.3 305 183.5 L 303.5 182 Z " /><path fill="rgb(167,167,167)" stroke="rgb(167,167,167)" stroke-width="1" opacity="0.09803921568627451" d="M 343.5 184 L 342.5 186 L 341 185.5 L 343.5 184 Z " /><path fill="rgb(167,167,167)" stroke="rgb(167,167,167)" stroke-width="1" opacity="0.09803921568627451" d="M 363.5 184 L 364.5 186 L 363.5 184 Z " /><path fill="rgb(167,167,167)" stroke="rgb(167,167,167)" stroke-width="1" opacity="0.09803921568627451" d="M 481.5 184 L 482 188.5 L 481 188.5 L 481.5 184 Z " /><path fill="rgb(167,167,167)" stroke="rgb(167,167,167)" stroke-width="1" opacity="0.09803921568627451" d="M 258.5 185 L 259 203.5 L 258 203.5 L 258.5 185 Z " /><path fill="rgb(167,167,167)" stroke="rgb(167,167,167)" stroke-width="1" opacity="0.09803921568627451" d="M 419.5 185 L 420 190.5 L 419 190.5 L 419.5 185 Z " /><path fill="rgb(167,167,167)" stroke="rgb(167,167,167)" stroke-width="1" opacity="0.09803921568627451" d="M 442.5 185 L 443.5 187 L 442.5 185 Z " /><path fill="rgb(167,167,167)" stroke="rgb(167,167,167)" stroke-width="1" opacity="0.09803921568627451" d="M 458.5 185 Q 461.5 186.5 458.5 188 L 456 186.5 L 458 186.5 L 458.5 185 Z " /><path fill="rgb(167,167,167)" stroke="rgb(167,167,167)" stroke-width="1" opacity="0.09803921568627451" d="M 329.5 186 L 333 186.5 L 329.5 187 L 329.5 186 Z " /><path fill="rgb(167,167,167)" stroke="rgb(167,167,167)" stroke-width="1" opacity="0.09803921568627451" d="M 336.5 186 L 340 186.5 L 336.5 187 L 336.5 186 Z " /><path fill="rgb(167,167,167)" stroke="rgb(167,167,167)" stroke-width="1" opacity="0.09803921568627451" d="M 467.5 186 L 470 187.5 L 468.5 187 L 467.5 186 Z " /><path fill="rgb(167,167,167)" stroke="rgb(167,167,167)" stroke-width="1" opacity="0.09803921568627451" d="M 444.5 188 L 449 188.5 L 444.5 189 L 444.5 188 Z " /><path fill="rgb(167,167,167)" stroke="rgb(167,167,167)" stroke-width="1" opacity="0.09803921568627451" d="M 453.5 188 L 456 188.5 L 453.5 189 L 453.5 188 Z " /><path fill="rgb(167,167,167)" stroke="rgb(167,167,167)" stroke-width="1" opacity="0.09803921568627451" d="M 481.5 192 L 482 196.5 L 481 196.5 L 481.5 192 Z " /><path fill="rgb(167,167,167)" stroke="rgb(167,167,167)" stroke-width="1" opacity="0.09803921568627451" d="M 582.5 192 L 581.5 194 L 577.5 196 L 578.5 194 L 582.5 192 Z " /><path fill="rgb(167,167,167)" stroke="rgb(167,167,167)" stroke-width="1" opacity="0.09803921568627451" d="M 389.5 193 L 390 197.5 L 387.5 199 L 389 196.5 L 389.5 193 Z " /><path fill="rgb(167,167,167)" stroke="rgb(167,167,167)" stroke-width="1" opacity="0.09803921568627451" d="M 432.5 193 Q 436.4 198.1 444 199.5 L 441.5 200 Q 434.5 197.9 432.5 193 Z " /><path fill="rgb(167,167,167)" stroke="rgb(167,167,167)" stroke-width="1" opacity="0.09803921568627451" d="M 119.5 194 L 120 196.5 L 119 196.5 L 119.5 194 Z " /><path fill="rgb(167,167,167)" stroke="rgb(167,167,167)" stroke-width="1" opacity="0.09803921568627451" d="M 315.5 194 L 317 196.5 L 315 195.5 L 315.5 194 Z " /><path fill="rgb(167,167,167)" stroke="rgb(167,167,167)" stroke-width="1" opacity="0.09803921568627451" d="M 373.5 194 Q 377.3 192.8 376 196.5 L 375 196.5 Q 375.8 194.3 373.5 195 L 373.5 194 Z " /><path fill="rgb(167,167,167)" stroke="rgb(167,167,167)" stroke-width="1" opacity="0.09803921568627451" d="M 615.5 194 L 617 198.5 L 615 199 L 615.5 194 Z " /><path fill="rgb(167,167,167)" stroke="rgb(167,167,167)" stroke-width="1" opacity="0.09803921568627451" d="M 465.5 196 L 463.5 199 L 460 198.5 L 465.5 196 Z " /><path fill="rgb(167,167,167)" stroke="rgb(167,167,167)" stroke-width="1" opacity="0.09803921568627451" d="M 574.5 196 L 576 196.5 L 572.5 198 L 572.5 197 L 574.5 196 Z " /><path fill="rgb(167,167,167)" stroke="rgb(167,167,167)" stroke-width="1" opacity="0.09803921568627451" d="M 318.5 197 L 323 198.5 L 320.5 199 L 318.5 197 Z " /><path fill="rgb(167,167,167)" stroke="rgb(167,167,167)" stroke-width="1" opacity="0.09803921568627451" d="M 349.5 197 L 351 197.5 L 345.5 199 L 345.5 198 L 349.5 197 Z " /><path fill="rgb(167,167,167)" stroke="rgb(167,167,167)" stroke-width="1" opacity="0.09803921568627451" d="M 119.5 198 L 120 201.5 L 119 201.5 L 119.5 198 Z " /><path fill="rgb(167,167,167)" stroke="rgb(167,167,167)" stroke-width="1" opacity="0.09803921568627451" d="M 406.5 198 Q 408.8 197.3 408 199.5 L 406.5 198 Z " /><path fill="rgb(167,167,167)" stroke="rgb(167,167,167)" stroke-width="1" opacity="0.09803921568627451" d="M 417.5 198 L 419 198.5 Q 418.3 200.8 414.5 200 L 414.5 199 L 417.5 198 Z " /><path fill="rgb(167,167,167)" stroke="rgb(167,167,167)" stroke-width="1" opacity="0.09803921568627451" d="M 481.5 198 L 485 199.5 L 483.5 200 L 481.5 198 Z " /><path fill="rgb(167,167,167)" stroke="rgb(167,167,167)" stroke-width="1" opacity="0.09803921568627451" d="M 564.5 198 L 571 198.5 L 564.5 199 L 564.5 198 Z " /><path fill="rgb(167,167,167)" stroke="rgb(167,167,167)" stroke-width="1" opacity="0.09803921568627451" d="M 324.5 199 L 330 200.5 L 328.5 201 L 324.5 200 L 324.5 199 Z " /><path fill="rgb(167,167,167)" stroke="rgb(167,167,167)" stroke-width="1" opacity="0.09803921568627451" d="M 342.5 199 L 344 199.5 L 341.5 201 L 342.5 199 Z " /><path fill="rgb(167,167,167)" stroke="rgb(167,167,167)" stroke-width="1" opacity="0.09803921568627451" d="M 456.5 199 L 459 199.5 Q 454.5 202.5 445.5 201 L 445.5 200 L 455.5 200 L 456.5 199 Z " /><path fill="rgb(167,167,167)" stroke="rgb(167,167,167)" stroke-width="1" opacity="0.09803921568627451" d="M 487.5 199 L 491 199.5 L 487.5 200 L 487.5 199 Z " /><path fill="rgb(167,167,167)" stroke="rgb(167,167,167)" stroke-width="1" opacity="0.09803921568627451" d="M 538.5 199 L 542 199.5 L 538.5 200 L 538.5 199 Z " /><path fill="rgb(167,167,167)" stroke="rgb(167,167,167)" stroke-width="1" opacity="0.09803921568627451" d="M 547.5 199 L 553 199.5 L 547.5 200 L 547.5 199 Z " /><path fill="rgb(167,167,167)" stroke="rgb(167,167,167)" stroke-width="1" opacity="0.09803921568627451" d="M 119.5 208 Q 121.8 207.3 121 209.5 L 119.5 208 Z " /><path fill="rgb(167,167,167)" stroke="rgb(167,167,167)" stroke-width="1" opacity="0.09803921568627451" d="M 256.5 210 Q 259.1 209.2 258 212.5 L 252.5 217 L 250.5 217 L 250.5 216 L 257 212.5 L 256.5 210 Z " /><path fill="rgb(167,167,167)" stroke="rgb(167,167,167)" stroke-width="1" opacity="0.09803921568627451" d="M 124.5 215 L 128 216.5 L 125.5 217 L 124.5 215 Z " /><path fill="rgb(167,167,167)" stroke="rgb(167,167,167)" stroke-width="1" opacity="0.09803921568627451" d="M 217.5 216 L 222 216.5 L 217.5 217 L 217.5 216 Z " /><path fill="rgb(167,167,167)" stroke="rgb(167,167,167)" stroke-width="1" opacity="0.09803921568627451" d="M 225.5 216 L 228 216.5 L 225.5 217 L 225.5 216 Z " /></svg>