<svg width="500" height="500" version="1.1" xmlns="http://www.w3.org/2000/svg" desc="Created with imagetracer.js version 1.2.6" ><path fill="rgb(0,0,0)" stroke="rgb(0,0,0)" stroke-width="1" opacity="0" d="M 0 0 L 500 0 L 500 500 L 0 500 L 0 0 Z M 270 73 L 269 74 L 115 74 L 108 78 Q 105 77 106 80 L 104 80 L 104 82 L 102 82 L 97 92 L 97 151 L 87 154 Q 79 159 77 171 L 78 189 L 80 197 L 80 207 L 82 216 L 82 229 L 84 239 L 84 247 L 85 248 L 85 259 L 87 267 L 87 279 L 89 287 L 91 317 L 93 324 L 93 337 L 95 345 L 95 357 L 97 365 L 98 389 L 100 400 L 104 407 L 110 411 L 120 415 L 388 415 L 398 411 L 407 400 L 409 391 L 409 374 L 410 373 L 410 363 L 411 362 L 412 333 L 413 332 L 413 311 L 415 300 L 415 285 L 416 284 L 416 273 L 417 272 L 417 259 L 418 258 L 418 243 L 420 232 L 420 217 L 421 216 L 421 208 L 418 199 Q 414 190 403 190 L 403 95 L 398 84 L 390 76 L 378 73 L 373 74 Q 367 76 366 73 L 341 73 L 340 74 L 328 74 L 327 73 L 325 74 L 280 74 L 279 73 L 270 73 Z " /><path fill="rgb(252,225,225)" stroke="rgb(252,225,225)" stroke-width="1" opacity="0.9882352941176471" d="M 269.5 73 L 278.5 73 L 279.5 74 L 324.5 74 L 326.5 73 L 327.5 74 L 339.5 74 L 340.5 73 L 365.5 73 Q 367 75.5 372.5 74 L 377.5 73 L 389.5 76 L 398 83.5 L 403 94.5 L 403 190 Q 413.8 190.4 418 198.5 L 421 207.5 L 421 215.5 L 420 216.5 L 420 231.5 L 418 242.5 L 418 257.5 L 417 258.5 L 417 271.5 L 416 272.5 L 416 283.5 L 415 284.5 L 415 299.5 L 413 310.5 L 413 331.5 L 412 332.5 L 411 361.5 L 410 362.5 L 410 372.5 L 409 373.5 L 409 390.5 L 407 399.5 L 397.5 411 L 387.5 415 L 119.5 415 L 109.5 411 L 104 407 L 100 399.5 L 98 388.5 L 97 364.5 L 95 356.5 L 95 344.5 L 93 336.5 L 93 323.5 L 91 316.5 L 89 286.5 L 87 278.5 L 87 266.5 L 85 258.5 L 85 247.5 L 84 246.5 L 84 238.5 L 82 228.5 L 82 215.5 L 80 206.5 L 80 196.5 L 78 188.5 L 77 170.5 Q 79 159.5 86.5 154 L 97 151 L 97 91.5 L 102 82 L 104 82 L 104 80 L 106 80 Q 104.9 77.3 107.5 78 L 114.5 74 L 268.5 74 L 269.5 73 Z " /></svg>